<svg width="36" height="36" viewBox="0 0 36 36" fill="none" xmlns="http://www.w3.org/2000/svg">
<g clip-path="url(#clip0_3147_1719)">
<mask id="mask0_3147_1719" style="mask-type:luminance" maskUnits="userSpaceOnUse" x="0" y="0" width="36" height="36">
<path d="M36 0H0V36H36V0Z" fill="white"/>
</mask>
<g mask="url(#mask0_3147_1719)">
<path d="M36 0H0V36H36V0Z" fill="white" fill-opacity="0.01"/>
<path fill-rule="evenodd" clip-rule="evenodd" d="M29.3137 29.3137C26.4182 32.2091 22.4182 34 18 34C13.5818 34 9.58176 32.2091 6.68629 29.3137C3.79086 26.4182 2 22.4182 2 18C2 13.5818 3.79086 9.58176 6.68629 6.68629C9.58176 3.79086 13.5818 2 18 2C22.4182 2 26.4182 3.79086 29.3137 6.68629C32.2091 9.58176 34 13.5818 34 18C34 22.4182 32.2091 26.4182 29.3137 29.3137ZM26.7179 13.6961C27.1024 13.2997 27.0926 12.6666 26.6961 12.2821C26.2997 11.8976 25.6666 11.9074 25.2821 12.3039L15.3333 20.5635L10.7179 17.8039C10.3334 17.4074 9.70034 17.3976 9.30385 17.7821C8.90737 18.1666 8.89763 18.7997 9.2821 19.1961L14.6154 24.6961C14.8038 24.8904 15.0628 25 15.3333 25C15.6039 25 15.8629 24.8904 16.0512 24.6961L26.7179 13.6961Z" fill="white"/>
</g>
</g>
<defs>
<clipPath id="clip0_3147_1719">
<rect width="36" height="36" fill="white"/>
</clipPath>
</defs>
</svg>
